<svg width="57" height="56" viewBox="0 0 57 56" fill="none" xmlns="http://www.w3.org/2000/svg">
<rect x="0.5" width="56" height="56" rx="10" fill="white"/>
<path d="M24.5 38C25.0523 38 25.5 37.5523 25.5 37C25.5 36.4477 25.0523 36 24.5 36C23.9477 36 23.5 36.4477 23.5 37C23.5 37.5523 23.9477 38 24.5 38Z" stroke="#A5A5A5" stroke-width="2" stroke-linecap="round" stroke-linejoin="round"/>
<path d="M35.5 38C36.0523 38 36.5 37.5523 36.5 37C36.5 36.4477 36.0523 36 35.5 36C34.9477 36 34.5 36.4477 34.5 37C34.5 37.5523 34.9477 38 35.5 38Z" stroke="#A5A5A5" stroke-width="2" stroke-linecap="round" stroke-linejoin="round"/>
<path d="M18.55 18.05H20.55L23.21 30.47C23.3076 30.9249 23.5607 31.3315 23.9257 31.6199C24.2907 31.9083 24.7449 32.0604 25.21 32.05H34.99C35.4452 32.0493 35.8865 31.8933 36.241 31.6079C36.5956 31.3224 36.8421 30.9246 36.94 30.48L38.59 23.05H21.62" stroke="#A5A5A5" stroke-width="2" stroke-linecap="round" stroke-linejoin="round"/>
</svg>
