<svg width="57" height="56" viewBox="0 0 57 56" fill="none" xmlns="http://www.w3.org/2000/svg">
<rect x="0.5" width="56" height="56" rx="10" fill="white"/>
<path d="M35.5 37V35C35.5 33.9391 35.0786 32.9217 34.3284 32.1716C33.5783 31.4214 32.5609 31 31.5 31H25.5C24.4391 31 23.4217 31.4214 22.6716 32.1716C21.9214 32.9217 21.5 33.9391 21.5 35V37" stroke="#A5A5A5" stroke-width="2" stroke-linecap="round" stroke-linejoin="round"/>
<path d="M28.5 27C30.7091 27 32.5 25.2091 32.5 23C32.5 20.7909 30.7091 19 28.5 19C26.2909 19 24.5 20.7909 24.5 23C24.5 25.2091 26.2909 27 28.5 27Z" stroke="#A5A5A5" stroke-width="2" stroke-linecap="round" stroke-linejoin="round"/>
</svg>
